<svg xmlns="http://www.w3.org/2000/svg" width="81.203" height="46.208" viewBox="0 0 81.203 46.208">
  <g id="eyes" transform="translate(-0.05 -65.426)">
    <path id="Path_6" data-name="Path 6" d="M576.612,344.662c0-8.781-5.949-15.9-13.287-15.9a12.206,12.206,0,0,0-9.214,4.448c-.744-2.5-1.414-5.028-2.04-7.558,3.209-7.623,9.89-12.865,17.612-12.865,10.849,0,19.642,10.344,19.642,23.1S580.529,359,569.682,359c-.2,0-.393,0-.588-.011C573.542,356.418,576.612,350.969,576.612,344.662Z" transform="translate(-508.071 -247.364)" fill="#f2f2f2"/>
    <path id="Path_7" data-name="Path 7" d="M535.69,429.37c.627,2.53,1.3,5.056,2.04,7.558a16.786,16.786,0,0,0-3.65,7.461,27.135,27.135,0,0,1-.422-4.779A26.374,26.374,0,0,1,535.69,429.37Z" transform="translate(-491.691 -351.079)" fill="#e6e6e6"/>
    <path id="Path_8" data-name="Path 8" d="M676.544,724.782q-.705-.11-1.394-.279a7.284,7.284,0,0,0,.883-.323C676.2,724.381,676.371,724.583,676.544,724.782Z" transform="translate(-617.569 -613.357)" fill="#252324"/>
    <path id="Path_9" data-name="Path 9" d="M587.456,480.131a7.468,7.468,0,0,0-12.294-5.7A91.449,91.449,0,0,1,570.56,462a12.206,12.206,0,0,1,9.214-4.448c7.338,0,13.287,7.118,13.287,15.9,0,6.307-3.07,11.756-7.518,14.325a16.977,16.977,0,0,1-2.048-.2c-.173-.2-.343-.4-.513-.6A7.468,7.468,0,0,0,587.456,480.131Z" transform="translate(-524.521 -376.149)" fill="#3d3c3e"/>
    <path id="Path_10" data-name="Path 10" d="M545.732,510.292a7.454,7.454,0,0,0-2.525,7.036,24.37,24.37,0,0,1-5.727-12.007,16.786,16.786,0,0,1,3.65-7.461A91.313,91.313,0,0,0,545.732,510.292Z" transform="translate(-495.091 -412.011)" fill="#252324"/>
    <path id="Path_11" data-name="Path 11" d="M624.554,601.964a7.468,7.468,0,0,1-4.474,6.842,53.889,53.889,0,0,1-6.23-9.331c-.562-1.056-1.088-2.129-1.59-3.211a7.469,7.469,0,0,1,12.294,5.7Z" transform="translate(-561.619 -497.982)" fill="#f5f4f5"/>
    <path id="Path_12" data-name="Path 12" d="M590.907,610.52c.5,1.083,1.028,2.155,1.59,3.211a53.894,53.894,0,0,0,6.23,9.331,7.3,7.3,0,0,1-.883.323,18.831,18.831,0,0,1-9.465-5.83,7.454,7.454,0,0,1,2.525-7.036Z" transform="translate(-540.266 -512.239)" fill="#eaeaeb"/>
    <path id="Path_14" data-name="Path 14" d="M166.512,344.662c0-8.781,5.949-15.9,13.286-15.9a12.2,12.2,0,0,1,9.214,4.448c.744-2.5,1.414-5.028,2.041-7.558-3.21-7.623-9.89-12.865-17.612-12.865-10.849,0-19.642,10.344-19.642,23.1s8.795,23.1,19.642,23.1c.2,0,.393,0,.588-.011C169.577,356.418,166.512,350.969,166.512,344.662Z" transform="translate(-153.75 -247.364)" fill="#f2f2f2"/>
    <path id="Path_15" data-name="Path 15" d="M474.9,429.37c-.628,2.53-1.3,5.056-2.041,7.558a16.829,16.829,0,0,1,3.657,7.461,27.241,27.241,0,0,0,.422-4.779A26.374,26.374,0,0,0,474.9,429.37Z" transform="translate(-437.602 -351.079)" fill="#e6e6e6"/>
    <path id="Path_16" data-name="Path 16" d="M355.65,724.782q.705-.11,1.394-.279a7.368,7.368,0,0,1-.883-.323C355.993,724.381,355.822,724.583,355.65,724.782Z" transform="translate(-333.326 -613.357)" fill="#252324"/>
    <path id="Path_17" data-name="Path 17" d="M274.566,480.131a7.469,7.469,0,0,1,12.294-5.7A91.31,91.31,0,0,0,291.46,462a12.2,12.2,0,0,0-9.214-4.448c-7.337,0-13.286,7.118-13.286,15.9,0,6.307,3.069,11.756,7.518,14.325a17,17,0,0,0,2.048-.2c.172-.2.343-.4.512-.6A7.467,7.467,0,0,1,274.566,480.131Z" transform="translate(-256.202 -376.149)" fill="#3d3c3e"/>
    <path id="Path_18" data-name="Path 18" d="M431.17,510.292a7.454,7.454,0,0,1,2.525,7.036,24.371,24.371,0,0,0,5.727-12.007,16.787,16.787,0,0,0-3.651-7.461A91.454,91.454,0,0,1,431.17,510.292Z" transform="translate(-400.512 -412.011)" fill="#252324"/>
    <path id="Path_19" data-name="Path 19" d="M319.76,601.964a7.468,7.468,0,0,0,4.474,6.842,53.834,53.834,0,0,0,6.23-9.332q.841-1.585,1.59-3.211a7.469,7.469,0,0,0-12.294,5.7Z" transform="translate(-301.396 -497.982)" fill="#f5f4f5"/>
    <path id="Path_20" data-name="Path 20" d="M368.112,610.52q-.753,1.624-1.59,3.211a53.835,53.835,0,0,1-6.231,9.331,7.39,7.39,0,0,0,.883.323,18.83,18.83,0,0,0,9.465-5.83,7.454,7.454,0,0,0-2.525-7.036Z" transform="translate(-337.454 -512.239)" fill="#eaeaeb"/>
  </g>
</svg>
