<svg id="facebook" xmlns="http://www.w3.org/2000/svg" width="316.72" height="316.72" viewBox="0 0 316.72 316.72">
  <path id="Path_4" data-name="Path 4" d="M32.991,0H283.728A32.992,32.992,0,0,1,316.72,32.991V283.728a32.992,32.992,0,0,1-32.991,32.992H32.991A32.991,32.991,0,0,1,0,283.728V32.991A32.991,32.991,0,0,1,32.991,0Z" fill="#484848"/>
  <path id="Path_5" data-name="Path 5" d="M325.5,116.786H351.9a6.6,6.6,0,0,0,6.6-6.6V70.6a6.6,6.6,0,0,0-6.6-6.6H325.5a72.582,72.582,0,0,0-72.581,72.581v32.991H219.931a6.6,6.6,0,0,0-6.6,6.6v39.59a6.6,6.6,0,0,0,6.6,6.6h32.992V341.13h52.786V222.36H338.7a6.6,6.6,0,0,0,6.255-4.513l13.2-39.59a6.6,6.6,0,0,0-6.255-8.684H305.709V136.581A19.8,19.8,0,0,1,325.5,116.786Z" transform="translate(-81.367 -24.41)" fill="#f5f5f5"/>
</svg>
