<svg id="instagram" xmlns="http://www.w3.org/2000/svg" width="255.925" height="255.925" viewBox="0 0 255.925 255.925">
  <path id="Path_1" data-name="Path 1" d="M218.436,0H37.489A37.534,37.534,0,0,0,0,37.489V218.436a37.534,37.534,0,0,0,37.489,37.489H218.436a37.534,37.534,0,0,0,37.489-37.489V37.489A37.534,37.534,0,0,0,218.436,0ZM128.463,194.943a67.48,67.48,0,1,1,67.48-67.48A67.555,67.555,0,0,1,128.463,194.943ZM203.441,74.978a22.493,22.493,0,1,1,22.493-22.493A22.519,22.519,0,0,1,203.441,74.978Zm0,0" fill="#484848"/>
  <path id="Path_2" data-name="Path 2" d="M399.5,90a7.5,7.5,0,1,0,7.5,7.5A7.5,7.5,0,0,0,399.5,90Zm0,0" transform="translate(-196.057 -45.013)" fill="#484848"/>
  <path id="Path_3" data-name="Path 3" d="M204.485,150a52.485,52.485,0,1,0,52.485,52.485A52.548,52.548,0,0,0,204.485,150Zm0,0" transform="translate(-76.022 -75.022)" fill="#484848"/>
</svg>
