<svg xmlns="http://www.w3.org/2000/svg" width="269.725" height="269.725" viewBox="0 0 269.725 269.725">
  <path id="linkedin" d="M250.273,0H19.453A19.452,19.452,0,0,0,0,19.453v230.82a19.452,19.452,0,0,0,19.453,19.453h230.82a19.452,19.452,0,0,0,19.453-19.453V19.453A19.452,19.452,0,0,0,250.273,0ZM95.673,203.874H62.828V105.059H95.673ZM79.252,91.566h-.214c-11.022,0-18.15-7.587-18.15-17.07,0-9.7,7.346-17.074,18.582-17.074S97.62,64.8,97.834,74.5C97.834,83.978,90.706,91.566,79.252,91.566ZM214.106,203.874H181.265V151.011c0-13.285-4.756-22.346-16.64-22.346-9.073,0-14.477,6.112-16.852,12.012a22.493,22.493,0,0,0-1.08,8.015v55.183H113.85s.43-89.545,0-98.815h32.843V119.05c4.365-6.733,12.174-16.31,29.6-16.31,21.609,0,37.813,14.123,37.813,44.474Zm0,0" fill="#484848"/>
</svg>
